<svg width="83" height="83" viewBox="0 0 83 83" fill="none" xmlns="http://www.w3.org/2000/svg">
<path d="M27.6666 27.6667V24.2083C27.6666 20.5395 29.1241 17.0209 31.7183 14.4267C34.3126 11.8324 37.8311 10.375 41.5 10.375C45.1688 10.375 48.6874 11.8324 51.2816 14.4267C53.8759 17.0209 55.3333 20.5395 55.3333 24.2083V27.6667" stroke="#0D99FF" stroke-width="2" stroke-linecap="round"/>
<path fill-rule="evenodd" clip-rule="evenodd" d="M12.4016 26.235C10.375 28.2615 10.375 31.5193 10.375 38.0417V48.4167C10.375 61.4581 10.375 67.9805 14.4282 72.0302C18.4813 76.0799 25.0003 76.0834 38.0417 76.0834H44.9583C57.9997 76.0834 64.5221 76.0834 68.5718 72.0302C72.6215 67.977 72.625 61.4581 72.625 48.4167V38.0417C72.625 31.5193 72.625 28.2615 70.5984 26.235C68.5718 24.2084 65.3141 24.2084 58.7917 24.2084H24.2083C17.6859 24.2084 14.4282 24.2084 12.4016 26.235ZM34.5833 41.5C34.5833 40.5828 34.219 39.7032 33.5704 39.0546C32.9218 38.4061 32.0422 38.0417 31.125 38.0417C30.2078 38.0417 29.3282 38.4061 28.6796 39.0546C28.031 39.7032 27.6667 40.5828 27.6667 41.5V48.4167C27.6667 49.3339 28.031 50.2136 28.6796 50.8621C29.3282 51.5107 30.2078 51.875 31.125 51.875C32.0422 51.875 32.9218 51.5107 33.5704 50.8621C34.219 50.2136 34.5833 49.3339 34.5833 48.4167V41.5ZM55.3333 41.5C55.3333 40.5828 54.969 39.7032 54.3204 39.0546C53.6718 38.4061 52.7922 38.0417 51.875 38.0417C50.9578 38.0417 50.0782 38.4061 49.4296 39.0546C48.781 39.7032 48.4167 40.5828 48.4167 41.5V48.4167C48.4167 49.3339 48.781 50.2136 49.4296 50.8621C50.0782 51.5107 50.9578 51.875 51.875 51.875C52.7922 51.875 53.6718 51.5107 54.3204 50.8621C54.969 50.2136 55.3333 49.3339 55.3333 48.4167V41.5Z" fill="#0D99FF"/>
</svg>
